<svg xmlns="http://www.w3.org/2000/svg" width="738" height="630" viewBox="0 0 738 630" font-family="ui-sans-serif, system-ui, -apple-system, sans-serif">
<rect width="738" height="630" fill="#fcfcfb"/>
<text x="34" y="34" font-size="19" font-weight="600" fill="#0b0b0b">MAP-Elites mutation lineage</text>
<text x="34" y="54" font-size="12" fill="#52514e">rq_evolve_base_8b — 15 programs ever champion · 6 alive · 8 seed roots · 12 iterations · coverage 10%</text>
<g font-size="11" fill="#52514e">
<text x="34" y="82">p̂ (fill)</text>
<rect x="82" y="73" width="11" height="11" fill="#cde2fb"/>
<rect x="93" y="73" width="11" height="11" fill="#b7d3f6"/>
<rect x="104" y="73" width="11" height="11" fill="#9ec5f4"/>
<rect x="115" y="73" width="11" height="11" fill="#86b6ef"/>
<rect x="126" y="73" width="11" height="11" fill="#6da7ec"/>
<rect x="137" y="73" width="11" height="11" fill="#5598e7"/>
<rect x="148" y="73" width="11" height="11" fill="#3987e5"/>
<rect x="159" y="73" width="11" height="11" fill="#2a78d6"/>
<rect x="170" y="73" width="11" height="11" fill="#256abf"/>
<rect x="181" y="73" width="11" height="11" fill="#1c5cab"/>
<rect x="192" y="73" width="11" height="11" fill="#184f95"/>
<rect x="203" y="73" width="11" height="11" fill="#104281"/>
<rect x="214" y="73" width="11" height="11" fill="#0d366b"/>
<text x="231" y="82">0 → 1</text>
<circle cx="279" cy="78" r="7" fill="none" stroke="#52514e" stroke-width="1"/>
<text x="291" y="82">size = best R_Q</text>
<circle cx="401" cy="78" r="4" fill="#b9b8b3"/>
<circle cx="401" cy="78" r="7.2" fill="none" stroke="#0b0b0b" stroke-width="1.6"/>
<text x="413" y="82">ring = alive in final archive</text>
<line x1="573" y1="78" x2="603" y2="78" stroke="#b9b8b3" stroke-width="1.6"/>
<text x="609" y="82">in_depth</text>
<line x1="673" y1="78" x2="703" y2="78" stroke="#b9b8b3" stroke-width="1.6" stroke-dasharray="4 3"/>
<text x="709" y="82">in_breadth</text>
</g>
<g font-size="11" fill="#52514e">
<text x="34" y="108">CONCEPT_GROUP</text>
<circle cx="146.0" cy="104.0" r="5.5" fill="#52514e" opacity="0.75"/>
<text x="158" y="108">number_theory (2)</text>
<polygon points="331.1,99.1 340.9,99.1 340.9,108.9 331.1,108.9" fill="#52514e" opacity="0.75"/>
<text x="348" y="108">combinatorics (7)</text>
<polygon points="526.0,95.4 533.4,108.3 518.6,108.3" fill="#52514e" opacity="0.75"/>
<text x="538" y="108">sequence (1)</text>
<polygon points="716.0,97.1 722.9,104.0 716.0,110.9 709.1,104.0" fill="#52514e" opacity="0.75"/>
<text x="728" y="108">algebra (1)</text>
<polygon points="912.0,104.0 909.0,109.2 903.0,109.2 900.0,104.0 903.0,98.8 909.0,98.8" fill="#52514e" opacity="0.75"/>
<text x="918" y="108">geometry (3)</text>
<polygon points="1096.0,112.6 1088.6,99.7 1103.4,99.7" fill="#52514e" opacity="0.75"/>
<text x="1108" y="108">inequality (1)</text>
</g>
<g font-size="11" fill="#52514e">
<line x1="34" y1="136" x2="34" y2="606" stroke="#e6e5e1" stroke-width="1"/>
<text x="26" y="128">gen 0</text>
<line x1="366" y1="136" x2="366" y2="606" stroke="#e6e5e1" stroke-width="1"/>
<text x="358" y="128">gen 1</text>
</g>
<g fill="none" stroke="#b9b8b3" stroke-width="1.6">
<path d="M348.0,161.0 V148.0 H366.0" stroke-dasharray="4 3"/>
<path d="M348.0,161.0 V174.0 H366.0" stroke-dasharray="4 3"/>
<path d="M338.0,161.0 H348.0"/>
<path d="M348.0,222.1 V222.1 H366.0"/>
<path d="M338.0,222.1 H348.0"/>
<path d="M348.0,366.4 V366.4 H366.0" stroke-dasharray="4 3"/>
<path d="M338.0,366.4 H348.0"/>
<path d="M348.0,462.6 V462.6 H366.0" stroke-dasharray="4 3"/>
<path d="M338.0,462.6 H348.0"/>
<path d="M348.0,523.7 V510.7 H366.0" stroke-dasharray="4 3"/>
<path d="M348.0,523.7 V536.7 H366.0" stroke-dasharray="4 3"/>
<path d="M338.0,523.7 H348.0"/>
</g>
<circle cx="34.0" cy="161.0" r="10.7" fill="#184f95" stroke="#e6e5e1" stroke-width="1" opacity="0.75"/>
<text x="60.0" y="164.5" font-size="9.5" fill="#0b0b0b">crt_count</text>
<g stroke="#52514e" opacity="0.8"><polyline points="260.0,164.6 264.4,161.0 268.9,157.4 273.3,156.2 277.8,159.0 282.2,156.2 286.7,158.6 291.1,157.4 295.6,157.4 300.0,157.4" fill="none" stroke-width="1"/></g>
<text x="308.0" y="164.5" font-size="9.5" fill="#52514e">0.80</text>
<polygon points="355.7,137.7 376.3,137.7 376.3,158.3 355.7,158.3" fill="#184f95" stroke="#e6e5e1" stroke-width="1"/>
<circle cx="366.0" cy="148.0" r="17.8" fill="none" stroke="#0b0b0b" stroke-width="1.6"/>
<text x="392.0" y="151.5" font-size="9.5" fill="#0b0b0b">grid_rectangular_boxes</text>
<g stroke="#52514e" opacity="0.8"><polyline points="592.0,145.6 597.0,145.6 602.0,151.6 607.0,149.2 612.0,146.8 617.0,145.6 622.0,149.2 627.0,144.4 632.0,144.4" fill="none" stroke-width="1"/></g>
<text x="640.0" y="151.5" font-size="9.5" fill="#52514e">0.80</text>
<polygon points="357.3,165.3 374.7,165.3 374.7,182.7 357.3,182.7" fill="#256abf" stroke="#e6e5e1" stroke-width="1" opacity="0.75"/>
<text x="392.0" y="177.5" font-size="9.5" fill="#0b0b0b">grid_rectangular_boxes</text>
<text x="640.0" y="177.5" font-size="9.5" fill="#52514e">0.70</text>
<polygon points="44.7,222.1 39.3,231.3 28.7,231.3 23.3,222.1 28.7,212.9 39.3,212.9" fill="#2a78d6" stroke="#e6e5e1" stroke-width="1" opacity="0.75"/>
<text x="60.0" y="225.6" font-size="9.5" fill="#0b0b0b">line_intersection_distance</text>
<g stroke="#52514e" opacity="0.8"><polyline points="260.0,225.4 270.0,224.5 280.0,220.9 290.0,224.5 300.0,220.9" fill="none" stroke-width="1"/></g>
<text x="308.0" y="225.6" font-size="9.5" fill="#52514e">0.60</text>
<polygon points="378.4,222.1 372.2,232.8 359.8,232.8 353.6,222.1 359.8,211.4 372.2,211.4" fill="#184f95" stroke="#e6e5e1" stroke-width="1"/>
<circle cx="366.0" cy="222.1" r="15.6" fill="none" stroke="#0b0b0b" stroke-width="1.6"/>
<text x="392.0" y="225.6" font-size="9.5" fill="#0b0b0b">line_intersection_distance</text>
<g stroke="#52514e" opacity="0.8"><polyline points="592.0,225.7 597.0,221.4 602.0,224.5 607.0,221.4 612.0,219.7 617.0,219.1 622.0,220.1 627.0,219.7 632.0,218.5" fill="none" stroke-width="1"/></g>
<text x="640.0" y="225.6" font-size="9.5" fill="#52514e">0.80</text>
<polygon points="34.0,253.4 48.6,278.6 19.4,278.6" fill="#256abf" stroke="#e6e5e1" stroke-width="1" opacity="0.75"/>
<text x="60.0" y="273.7" font-size="9.5" fill="#0b0b0b">linear_recurrence</text>
<g stroke="#52514e" opacity="0.8"><polyline points="260.0,266.9 268.0,272.6 276.0,266.9 284.0,266.6 292.0,266.6 300.0,268.2" fill="none" stroke-width="1"/></g>
<text x="308.0" y="273.7" font-size="9.5" fill="#52514e">0.67</text>
<polygon points="47.1,318.3 40.6,329.7 27.4,329.7 20.9,318.3 27.4,306.9 40.6,306.9" fill="#2a78d6" stroke="#e6e5e1" stroke-width="1"/>
<circle cx="34.0" cy="318.3" r="16.3" fill="none" stroke="#0b0b0b" stroke-width="1.6"/>
<text x="60.0" y="321.8" font-size="9.5" fill="#0b0b0b">ptolemy_cyclic_quadrilateral</text>
<g stroke="#52514e" opacity="0.8"><polyline points="260.0,317.6 263.6,319.5 267.3,314.7 270.9,318.3 274.5,315.0 278.2,318.3 281.8,315.9 285.5,314.7 289.1,313.5 292.7,315.9 296.4,316.3 300.0,317.1" fill="none" stroke-width="1"/></g>
<text x="308.0" y="321.8" font-size="9.5" fill="#52514e">0.60</text>
<polygon points="34.0,353.9 46.5,366.4 34.0,378.9 21.5,366.4" fill="#184f95" stroke="#e6e5e1" stroke-width="1"/>
<circle cx="34.0" cy="366.4" r="15.7" fill="none" stroke="#0b0b0b" stroke-width="1.6"/>
<text x="60.0" y="369.9" font-size="9.5" fill="#0b0b0b">quadratic_vieta_reciprocal</text>
<g stroke="#52514e" opacity="0.8"><polyline points="260.0,365.7 263.6,364.0 267.3,364.0 270.9,363.1 274.5,364.0 278.2,365.2 281.8,365.2 285.5,361.6 289.1,362.8 292.7,361.6 296.4,362.8 300.0,362.8" fill="none" stroke-width="1"/></g>
<text x="308.0" y="369.9" font-size="9.5" fill="#52514e">0.80</text>
<polygon points="356.9,357.3 375.1,357.3 375.1,375.5 356.9,375.5" fill="#5598e7" stroke="#e6e5e1" stroke-width="1" opacity="0.75"/>
<text x="392.0" y="369.9" font-size="9.5" fill="#0b0b0b">grid_rectangular_boxes</text>
<g stroke="#52514e" opacity="0.8"><polyline points="592.0,367.6 612.0,365.2 632.0,367.6" fill="none" stroke-width="1"/></g>
<text x="640.0" y="369.9" font-size="9.5" fill="#52514e">0.40</text>
<polygon points="25.4,405.9 42.6,405.9 42.6,423.1 25.4,423.1" fill="#9ec5f4" stroke="#e6e5e1" stroke-width="1" opacity="0.75"/>
<text x="60.0" y="418.0" font-size="9.5" fill="#0b0b0b">committee_count</text>
<g stroke="#52514e" opacity="0.8"><polyline points="260.0,416.9 300.0,418.1" fill="none" stroke-width="1"/></g>
<text x="308.0" y="418.0" font-size="9.5" fill="#52514e">0.20</text>
<polygon points="34.0,482.0 17.2,452.9 50.8,452.9" fill="#184f95" stroke="#e6e5e1" stroke-width="1"/>
<circle cx="34.0" cy="462.6" r="22.6" fill="none" stroke="#0b0b0b" stroke-width="1.6"/>
<text x="60.0" y="466.1" font-size="9.5" fill="#0b0b0b">am_gm_product</text>
<g stroke="#52514e" opacity="0.8"><polyline points="260.0,461.4 263.6,460.6 267.3,463.8 270.9,461.4 274.5,457.8 278.2,460.2 281.8,459.0 285.5,457.8 289.1,459.0 292.7,457.9 296.4,457.8 300.0,459.0" fill="none" stroke-width="1"/></g>
<text x="308.0" y="466.1" font-size="9.5" fill="#52514e">0.80</text>
<polygon points="356.1,452.7 375.9,452.7 375.9,472.5 356.1,472.5" fill="#5598e7" stroke="#e6e5e1" stroke-width="1" opacity="0.75"/>
<text x="392.0" y="466.1" font-size="9.5" fill="#0b0b0b">grid_rectangular_boxes</text>
<text x="640.0" y="466.1" font-size="9.5" fill="#52514e">0.40</text>
<circle cx="34.0" cy="523.7" r="11.3" fill="#256abf" stroke="#e6e5e1" stroke-width="1" opacity="0.75"/>
<text x="60.0" y="527.2" font-size="9.5" fill="#0b0b0b">gcd_lcm_sync</text>
<g stroke="#52514e" opacity="0.8"><polyline points="260.0,523.7 264.0,526.1 268.0,527.3 272.0,523.7 276.0,521.7 280.0,523.7 284.0,526.1 288.0,522.5 292.0,521.7 296.0,522.5 300.0,521.3" fill="none" stroke-width="1"/></g>
<text x="308.0" y="527.2" font-size="9.5" fill="#52514e">0.70</text>
<polygon points="355.5,500.2 376.5,500.2 376.5,521.2 355.5,521.2" fill="#3987e5" stroke="#e6e5e1" stroke-width="1" opacity="0.75"/>
<text x="392.0" y="514.2" font-size="9.5" fill="#0b0b0b">grid_rectangular_boxes</text>
<g stroke="#52514e" opacity="0.8"><polyline points="592.0,513.1 597.0,511.9 602.0,511.9 607.0,514.3 612.0,511.9 617.0,511.9 622.0,511.9 627.0,511.9 632.0,510.7" fill="none" stroke-width="1"/></g>
<text x="640.0" y="514.2" font-size="9.5" fill="#52514e">0.50</text>
<polygon points="357.5,528.2 374.5,528.2 374.5,545.2 357.5,545.2" fill="#1c5cab" stroke="#e6e5e1" stroke-width="1"/>
<circle cx="366.0" cy="536.7" r="15.3" fill="none" stroke="#0b0b0b" stroke-width="1.6"/>
<text x="392.0" y="540.2" font-size="9.5" fill="#0b0b0b">grid_rectangular_boxes</text>
<g stroke="#52514e" opacity="0.8"><polyline points="592.0,531.9 605.3,533.4 618.7,533.1 632.0,533.4" fill="none" stroke-width="1"/></g>
<text x="640.0" y="540.2" font-size="9.5" fill="#52514e">0.78</text>
<text x="34" y="622" font-size="10" fill="#52514e">R_Q = p̂(1-p̂)·H peaks at p̂ = 0.5 — the darkest and lightest fills are both dead niches. Label = CONCEPT_TYPE with its group prefix dropped; sparkline = p̂ per iteration while the program held its niche. Only archived champions appear; program_id is a source hash, so re-derivations from other parents collapse onto one node.</text>
</svg>